Coordinates
version=1
nRows=33
nColumns=34
inDegrees=no

Units are S.I. units (second, meters, Newtons, ...)
If the header above contains a line with 'inDegrees', this indicates whether rotational values are in degrees (yes) or radians (no).

endheader
time	pelvis_tilt	pelvis_list	pelvis_rotation	pelvis_tx	pelvis_ty	pelvis_tz	hip_flexion_r	hip_adduction_r	hip_rotation_r	knee_angle_r	ankle_angle_r	subtalar_angle_r	mtp_angle_r	hip_flexion_l	hip_adduction_l	hip_rotation_l	knee_angle_l	ankle_angle_l	subtalar_angle_l	mtp_angle_l	lumbar_extension	lumbar_bending	lumbar_rotation	arm_flex_r	arm_add_r	arm_rot_r	elbow_flex_r	pro_sup_r	arm_flex_l	arm_add_l	arm_rot_l	elbow_flex_l	pro_sup_l
0	0.206299	-0.0557671	-0.0399653	-0.172511	0.92972	-0.587415	-0.24211	-0.0598414	-0.109709	0.0485	0.251603	0.247172	-0.141517	-0.303941	-0.137103	-0.103748	-0.00771976	0.190657	-0.00484574	-0.141516	-0.37645	0.0271164	0.00311427	0.0937699	-0.123619	-0.195681	1.80173	1.29835	0.140698	-0.155923	-0.19579	1.69207	1.40325
0.01	0.206293	-0.0554061	-0.0394771	-0.172619	0.929721	-0.587417	-0.242597	-0.060004	-0.110241	0.0471451	0.250672	0.247841	-0.141517	-0.303468	-0.136917	-0.104596	-0.00770737	0.19078	-0.0024088	-0.141516	-0.377335	0.0266605	0.00314421	0.0947507	-0.123984	-0.19595	1.80131	1.29933	0.141891	-0.15567	-0.195884	1.69168	1.40112
0.02	0.205045	-0.0549889	-0.0391466	-0.172746	0.929623	-0.58741	-0.241106	-0.0602244	-0.110551	0.0467862	0.2502	0.247732	-0.141517	-0.301549	-0.136755	-0.106419	-0.00770531	0.191571	0.00134707	-0.141516	-0.376953	0.0262003	0.00338448	0.0955755	-0.12439	-0.196282	1.80091	1.30053	0.143035	-0.155405	-0.195701	1.69101	1.39848
0.03	0.202564	-0.0545183	-0.0389751	-0.17289	0.929426	-0.587393	-0.237652	-0.0605006	-0.110639	0.047416	0.250181	0.24685	-0.141517	-0.298196	-0.136618	-0.109198	-0.00771357	0.193018	0.00638783	-0.141516	-0.375315	0.0257369	0.00383788	0.096244	-0.12484	-0.196673	1.80054	1.30194	0.144129	-0.155129	-0.195238	1.69006	1.39534
0.04	0.198906	-0.0540022	-0.0389623	-0.173053	0.929135	-0.587368	-0.23232	-0.0608268	-0.110507	0.0489962	0.250594	0.245224	-0.141517	-0.293479	-0.136507	-0.112859	-0.00773196	0.195076	0.0125922	-0.141516	-0.37248	0.0252729	0.00450501	0.096762	-0.125341	-0.197115	1.80021	1.30353	0.145176	-0.154843	-0.194497	1.68884	1.39177
0.05	0.194231	-0.0534552	-0.0390984	-0.173232	0.928764	-0.587333	-0.22535	-0.0611908	-0.110168	0.0514153	0.251383	0.242935	-0.141517	-0.287582	-0.136423	-0.117229	-0.00775969	0.197635	0.019694	-0.141516	-0.368615	0.0248122	0.0053729	0.0971532	-0.125899	-0.197583	1.79993	1.30522	0.146181	-0.154555	-0.193477	1.68738	1.3879
0.06	0.188862	-0.0528985	-0.0393522	-0.173427	0.928338	-0.587293	-0.217237	-0.0615726	-0.10966	0.0544392	0.252434	0.240157	-0.141517	-0.280884	-0.136363	-0.122001	-0.0077947	0.200491	0.0272389	-0.141517	-0.364064	0.0243609	0.00640105	0.0974699	-0.126523	-0.198036	1.7997	1.30693	0.147157	-0.154289	-0.192187	1.68574	1.38398
0.07	0.183338	-0.0523592	-0.0396608	-0.173632	0.927903	-0.58725	-0.208811	-0.0619441	-0.109059	0.0576738	0.253566	0.237181	-0.141517	-0.274003	-0.136321	-0.126714	-0.00783293	0.203335	0.0345759	-0.141517	-0.359396	0.0239285	0.00750965	0.0978009	-0.127223	-0.198405	1.79957	1.30852	0.148126	-0.154084	-0.190647	1.68401	1.38029
0.08	0.178397	-0.0518668	-0.0399263	-0.173841	0.927516	-0.587213	-0.201216	-0.0622712	-0.108486	0.0605673	0.254529	0.234419	-0.141517	-0.267785	-0.136285	-0.130779	-0.00786764	0.205763	0.0409033	-0.141517	-0.355395	0.0235281	0.00857515	0.0982742	-0.128019	-0.198594	1.79957	1.30983	0.149126	-0.154004	-0.18889	1.6823	1.37722
0.09	0.174875	-0.0514489	-0.0400284	-0.174045	0.927248	-0.58719	-0.195752	-0.0625204	-0.108097	0.0624867	0.255039	0.232347	-0.141517	-0.263178	-0.136237	-0.133566	-0.00788941	0.207334	0.0453777	-0.141517	-0.352953	0.0231728	0.0094428	0.0990472	-0.128943	-0.198486	1.79977	1.3107	0.150211	-0.154134	-0.186954	1.68078	1.37511
0.1	0.173472	-0.051121	-0.039858	-0.174237	0.927157	-0.587189	-0.193514	-0.0626703	-0.108042	0.062893	0.254858	0.231387	-0.141517	-0.260965	-0.136153	-0.134534	-0.00788669	0.207663	0.0472737	-0.141517	-0.352821	0.0228668	0.00996443	0.100276	-0.130041	-0.197963	1.80019	1.311	0.151447	-0.154579	-0.184862	1.67956	1.37429
0.11	0.174421	-0.0508715	-0.0393683	-0.174419	0.927264	-0.587213	-0.194865	-0.0627296	-0.108403	0.0615972	0.253896	0.23171	-0.141517	-0.261388	-0.136006	-0.133394	-0.00784745	0.206535	0.0461529	-0.141517	-0.355261	0.0225938	0.0100616	0.10206	-0.131364	-0.196952	1.80083	1.31067	0.152912	-0.155456	-0.182576	1.67867	1.37487
0.12	0.17721	-0.0506485	-0.038615	-0.174601	0.927534	-0.587258	-0.199013	-0.0627509	-0.10913	0.0589666	0.252282	0.233085	-0.141517	-0.263831	-0.135758	-0.13021	-0.00776207	0.203992	0.041963	-0.141517	-0.359749	0.022307	0.00978918	0.104384	-0.132958	-0.195488	1.80165	1.30973	0.154704	-0.156881	-0.179944	1.67801	1.37676
0.13	0.18087	-0.0503774	-0.037713	-0.174805	0.927893	-0.587317	-0.204442	-0.0628154	-0.110106	0.0557281	0.250297	0.235039	-0.141517	-0.267153	-0.13537	-0.125302	-0.00762736	0.200255	0.0349632	-0.141517	-0.36528	0.0219438	0.00926957	0.10718	-0.134864	-0.193656	1.80257	1.30828	0.156927	-0.158973	-0.17677	1.67738	1.37967
0.14	0.184315	-0.0499787	-0.0367829	-0.175052	0.928257	-0.587379	-0.209447	-0.0630128	-0.111221	0.0527072	0.248271	0.237059	-0.141517	-0.270082	-0.134809	-0.119094	-0.00745129	0.195611	0.0255863	-0.141517	-0.370736	0.0214422	0.00862661	0.110383	-0.137118	-0.191552	1.80348	1.30645	0.159694	-0.161847	-0.172879	1.67662	1.38322
0.15	0.186589	-0.0493815	-0.0359125	-0.175361	0.928557	-0.587439	-0.212532	-0.0634264	-0.112404	0.0506286	0.246491	0.238717	-0.141517	-0.271512	-0.134042	-0.111997	-0.00725747	0.19034	0.0143238	-0.141517	-0.375152	0.0207536	0.00794377	0.113969	-0.13976	-0.189249	1.80432	1.30439	0.16313	-0.165617	-0.16814	1.67563	1.38694
0.16	0.187008	-0.0485283	-0.0351386	-0.175753	0.928739	-0.587496	-0.212627	-0.0641242	-0.113631	0.0500031	0.245156	0.239721	-0.141517	-0.270655	-0.133044	-0.104353	-0.007088	0.184674	0.00167483	-0.141517	-0.377854	0.0198483	0.00724596	0.117964	-0.142837	-0.186786	1.80505	1.30225	0.167371	-0.170392	-0.162485	1.67437	1.39041
0.17	0.185189	-0.047377	-0.0344471	-0.17624	0.928775	-0.587552	-0.209149	-0.0651552	-0.114903	0.0510874	0.244347	0.239906	-0.141517	-0.267094	-0.131793	-0.0964416	-0.00700301	0.178798	-0.0118359	-0.141517	-0.378503	0.0187133	0.00650203	0.12244	-0.146407	-0.184163	1.80567	1.30018	0.172554	-0.176265	-0.155901	1.67294	1.39328
0.18	0.18104	-0.0459013	-0.0337866	-0.176836	0.928658	-0.587611	-0.201981	-0.0665477	-0.116219	0.0538922	0.244027	0.239199	-0.141517	-0.260759	-0.130273	-0.088524	-0.00707474	0.172878	-0.0256041	-0.141517	-0.377064	0.0173488	0.0056421	0.127498	-0.150532	-0.181355	1.80624	1.29835	0.17881	-0.1833	-0.14843	1.67149	1.39528
0.19	0.1747	-0.0440919	-0.0330882	-0.177548	0.928396	-0.587681	-0.191382	-0.0683079	-0.117548	0.058222	0.244059	0.237578	-0.141517	-0.251858	-0.128477	-0.0808931	-0.00737446	0.167088	-0.0389133	-0.141517	-0.373752	0.0157637	0.00458203	0.133246	-0.155269	-0.178322	1.80685	1.29691	0.186256	-0.191519	-0.140159	1.67024	1.39625
0.2	0.166465	-0.0419595	-0.0322841	-0.178385	0.92801	-0.587766	-0.177861	-0.0704177	-0.11883	0.0637423	0.244242	0.235059	-0.141517	-0.240774	-0.126411	-0.0738678	-0.00795133	0.16161	-0.0509997	-0.141517	-0.368948	0.0139753	0.00324795	0.139787	-0.160656	-0.17504	1.80764	1.29599	0.194987	-0.200898	-0.131211	1.66943	1.39616
0.21	0.156682	-0.0395345	-0.0313221	-0.179355	0.927525	-0.587871	-0.162008	-0.0728392	-0.120008	0.0700842	0.244368	0.231706	-0.141517	-0.227922	-0.124099	-0.0676823	-0.00880385	0.156575	-0.0612964	-0.141517	-0.363086	0.0120102	0.00159503	0.147208	-0.166696	-0.171508	1.80873	1.29565	0.205078	-0.211366	-0.121733	1.66928	1.39513
0.22	0.145683	-0.0368673	-0.0301748	-0.180466	0.926963	-0.587994	-0.144362	-0.0755171	-0.121048	0.0769233	0.244268	0.227644	-0.141517	-0.213642	-0.121585	-0.0624635	-0.00984684	0.15206	-0.0695118	-0.141517	-0.356579	0.00990404	-0.00037938	0.155574	-0.173364	-0.167754	1.81027	1.29588	0.216579	-0.222814	-0.111878	1.66993	1.39344
0.23	0.13374	-0.0340247	-0.0288444	-0.18173	0.926343	-0.588136	-0.125339	-0.0783849	-0.12194	0.084033	0.243829	0.223042	-0.141517	-0.198119	-0.118934	-0.0582576	-0.0108797	0.148106	-0.0756057	-0.141517	-0.349767	0.00769915	-0.00262948	0.164922	-0.180613	-0.163827	1.81234	1.29658	0.229512	-0.2351	-0.1018	1.67144	1.39146
0.24	0.121044	-0.0310831	-0.0273619	-0.183159	0.925676	-0.588288	-0.105192	-0.0813726	-0.122697	0.091311	0.243003	0.218089	-0.141517	-0.18134	-0.116232	-0.055074	-0.0115642	0.144746	-0.0797151	-0.141517	-0.342891	0.00543941	-0.00506482	0.175266	-0.188374	-0.159791	1.81497	1.29762	0.243869	-0.248059	-0.0916331	1.67376	1.38965
0.25	0.107693	-0.0281171	-0.0257791	-0.184771	0.924967	-0.588445	-0.0840023	-0.0844169	-0.123336	0.098776	0.241794	0.212954	-0.141517	-0.163082	-0.113574	-0.0529209	-0.0114228	0.142029	-0.0820695	-0.141517	-0.33608	0.00316295	-0.00756707	0.186591	-0.196559	-0.15572	1.81817	1.29883	0.259613	-0.261506	-0.0814942	1.67678	1.38846
0.26	0.0936944	-0.025188	-0.0241548	-0.186584	0.924213	-0.588597	-0.0616983	-0.0874695	-0.123863	0.10654	0.24024	0.207749	-0.141517	-0.142946	-0.111053	-0.0518222	-0.00986668	0.140024	-0.0829166	-0.141517	-0.329356	0.00089682	-0.0100168	0.198862	-0.205059	-0.151691	1.82187	1.30009	0.276671	-0.275251	-0.0714761	1.68034	1.38828
0.27	0.078971	-0.0223371	-0.0225407	-0.188612	0.923402	-0.588737	-0.0380861	-0.0905003	-0.124264	0.114766	0.23839	0.202498	-0.141517	-0.120433	-0.108751	-0.0518163	-0.00626139	0.138815	-0.0824669	-0.141517	-0.322635	-0.0013429	-0.0123178	0.212025	-0.213756	-0.147763	1.82598	1.30129	0.294935	-0.289097	-0.0616553	1.68425	1.38938
0.28	0.0633693	-0.0195869	-0.0209707	-0.190866	0.922516	-0.58886	-0.0128878	-0.093493	-0.124495	0.123629	0.236286	0.197127	-0.141517	-0.0950833	-0.106728	-0.0529441	-2.80068e-05	0.138473	-0.0808578	-0.141517	-0.315746	-0.0035428	-0.0144108	0.226009	-0.222539	-0.143973	1.83038	1.30237	0.314266	-0.302848	-0.0520991	1.68834	1.39186
0.29	0.0467065	-0.016949	-0.0194574	-0.193348	0.921533	-0.588964	0.0141829	-0.0964346	-0.124479	0.13327	0.233947	0.191469	-0.141517	-0.0665763	-0.105025	-0.0552334	0.00923581	0.139038	-0.078143	-0.141517	-0.308476	-0.00568338	-0.0162682	0.240723	-0.231317	-0.140329	1.83498	1.30335	0.334504	-0.316304	-0.0428699	1.69245	1.39569
0.3	0.0288374	-0.0144347	-0.0179983	-0.196055	0.920432	-0.589052	0.0433215	-0.0993022	-0.124105	0.143763	0.231358	0.185302	-0.141517	-0.0348125	-0.103673	-0.0586829	0.0216508	0.140494	-0.0743046	-0.141517	-0.300647	-0.00773455	-0.0178796	0.256056	-0.240025	-0.136822	1.83972	1.30427	0.355477	-0.329263	-0.0340274	1.69645	1.40063
0.31	0.00971105	-0.0120617	-0.0165843	-0.198976	0.9192	-0.589125	0.0745559	-0.102055	-0.123246	0.155083	0.228474	0.178403	-0.141517	4.69585e-05	-0.1027	-0.0632485	0.0370298	0.14276	-0.0692925	-0.141517	-0.292175	-0.00965942	-0.0192374	0.271881	-0.24861	-0.133449	1.84452	1.30524	0.377012	-0.341525	-0.0256299	1.70028	1.40633
0.32	-0.0106159	-0.00985167	-0.0152062	-0.202095	0.917831	-0.589184	0.107741	-0.104645	-0.121803	0.167129	0.225239	0.170621	-0.141517	0.0376156	-0.102128	-0.0688127	0.0549347	0.145674	-0.0631138	-0.141517	-0.283083	-0.0114257	-0.020334	0.288058	-0.257018	-0.130217	1.84936	1.30631	0.398942	-0.352904	-0.0177381	1.70387	1.41237
